<?xml version="1.0" standalone="no"?>
<!DOCTYPE svg PUBLIC "-//W3C//DTD SVG 20010904//EN"
 "http://www.w3.org/TR/2001/REC-SVG-20010904/DTD/svg10.dtd">
<svg version="1.0" xmlns="http://www.w3.org/2000/svg"
 width="1500.000000pt" height="1500.000000pt" viewBox="0 0 1500.000000 1500.000000"
 preserveAspectRatio="xMidYMid meet">
<metadata>
Created by potrace 1.16, written by Peter Selinger 2001-2019
</metadata>
<g transform="translate(0.000000,1500.000000) scale(0.100000,-0.100000)"
fill="#000000" stroke="none">
<path d="M7325 12423 c-743 -49 -1435 -380 -1933 -926 -387 -424 -638 -962
-718 -1537 -21 -152 -29 -472 -15 -615 56 -573 301 -1272 787 -2245 369 -737
789 -1468 1347 -2345 179 -282 699 -1065 707 -1065 13 0 574 862 830 1275 918
1482 1520 2656 1825 3556 80 235 125 405 162 604 27 143 28 165 28 450 0 239
-4 322 -18 410 -45 279 -115 517 -222 754 -338 750 -969 1312 -1745 1556 -335
105 -700 150 -1035 128z m366 -1324 c239 -31 456 -113 664 -252 116 -77 310
-271 391 -392 154 -227 245 -484 263 -743 32 -466 -131 -882 -472 -1209 -367
-350 -882 -488 -1392 -371 -113 26 -299 101 -406 163 -370 218 -627 577 -721
1009 -32 148 -32 433 0 594 102 506 456 923 947 1115 84 32 274 81 355 90 77
9 292 6 371 -4z"/>
<path d="M6792 10358 c-23 -101 -42 -189 -42 -195 0 -10 30 -13 116 -13 105 0
115 -2 110 -17 -3 -10 -9 -43 -15 -73 -5 -30 -87 -387 -180 -793 -94 -406
-171 -740 -171 -743 0 -2 91 -4 203 -4 l204 0 178 773 c98 424 182 791 187
814 l9 42 122 3 121 3 18 75 c9 41 26 120 38 175 11 55 23 108 26 118 5 16
-20 17 -439 17 l-444 0 -41 -182z"/>
<path d="M7792 10463 c-11 -43 -36 -150 -56 -238 -20 -88 -114 -503 -211 -923
-96 -420 -175 -768 -175 -773 0 -6 160 -8 412 -7 l411 3 14 60 c8 33 24 108
37 166 l22 106 -199 6 c-109 3 -201 8 -204 11 -3 2 72 339 166 748 94 409 179
782 189 831 l19 87 -202 0 -202 0 -21 -77z"/>
<path d="M8640 3090 l0 -340 40 0 40 0 0 340 0 340 -40 0 -40 0 0 -340z"/>
<path d="M4730 3340 l0 -40 105 0 105 0 0 -275 0 -275 40 0 40 0 0 275 0 274
103 3 102 3 3 38 3 37 -250 0 -251 0 0 -40z"/>
<path d="M8170 3065 l0 -315 185 0 185 0 0 40 0 40 -140 0 -140 0 0 275 0 275
-45 0 -45 0 0 -315z"/>
<path d="M5398 3230 c-36 -11 -88 -48 -88 -64 0 -6 12 -19 28 -28 26 -15 28
-15 55 8 22 19 39 24 82 24 71 0 102 -15 116 -57 17 -53 10 -59 -81 -66 -146
-11 -210 -60 -210 -160 0 -95 50 -147 139 -147 46 0 66 6 104 30 26 17 50 30
52 30 3 0 5 -11 5 -25 0 -23 4 -25 41 -25 l42 0 -5 193 c-5 223 -12 246 -81
278 -44 20 -148 25 -199 9z m200 -296 c-3 -52 -6 -60 -40 -87 -50 -40 -126
-49 -157 -18 -50 50 -12 133 65 146 22 4 44 8 49 10 6 2 27 4 48 4 l38 1 -3
-56z"/>
<path d="M6010 3229 c-13 -6 -39 -21 -57 -34 -40 -31 -41 -31 -45 3 -3 23 -8
27 -40 30 l-38 3 0 -240 0 -241 40 0 40 0 0 169 0 169 30 25 c16 14 49 33 74
42 38 15 48 15 72 3 16 -7 31 -24 35 -38 4 -14 7 -103 8 -197 l1 -173 41 0 41
0 -4 198 c-4 218 -11 248 -68 277 -33 17 -92 19 -130 4z"/>
<path d="M6460 3233 c-92 -35 -147 -178 -121 -318 14 -77 40 -125 82 -153 29
-20 44 -23 101 -20 50 3 75 9 97 26 17 12 33 22 36 22 3 0 5 -49 5 -110 l0
-110 40 0 40 0 0 330 0 330 -40 0 c-32 0 -40 -4 -40 -19 0 -17 -3 -17 -47 5
-45 23 -116 31 -153 17z m155 -86 l40 -23 3 -129 3 -130 -43 -28 c-54 -35
-123 -37 -157 -6 -33 31 -43 66 -44 154 0 88 19 144 57 170 30 22 95 18 141
-8z"/>
<path d="M7514 3226 c-81 -36 -119 -125 -112 -266 5 -109 34 -167 101 -199 51
-25 150 -28 200 -7 30 13 85 62 76 69 -2 2 -17 11 -33 21 -28 18 -28 18 -57
-10 -24 -23 -37 -27 -80 -26 -83 2 -115 33 -126 122 l-6 50 158 0 158 0 -5 69
c-7 92 -32 140 -88 169 -51 25 -137 29 -186 8z m164 -80 c14 -14 26 -40 29
-64 l6 -42 -118 0 -117 0 7 28 c13 51 30 77 65 95 43 22 95 15 128 -17z"/>
<path d="M8960 3218 c-68 -35 -93 -88 -98 -209 -8 -189 52 -269 204 -269 71 0
118 16 153 54 l22 24 -31 22 -31 22 -22 -20 c-46 -43 -111 -49 -165 -15 -29
18 -52 70 -52 118 l0 35 155 0 155 0 0 35 c0 102 -41 184 -107 211 -50 22
-132 18 -183 -8z m146 -53 c35 -15 64 -61 64 -105 0 -19 -6 -20 -115 -20 -127
0 -128 1 -101 63 20 48 52 71 104 76 7 0 28 -6 48 -14z"/>
<path d="M9530 3214 c-25 -14 -53 -33 -62 -41 -17 -15 -18 -14 -18 20 0 36 -1
37 -40 37 l-40 0 0 -240 0 -240 40 0 40 0 0 170 0 170 54 36 c63 41 114 48
146 19 19 -17 20 -29 20 -207 l0 -188 40 0 40 0 0 190 c0 213 -10 259 -61 285
-44 23 -107 18 -159 -11z"/>
<path d="M9990 3218 c-76 -39 -110 -110 -110 -229 0 -95 22 -159 69 -202 45
-41 85 -51 170 -45 106 8 165 78 178 211 11 126 -32 232 -110 268 -59 26 -141
25 -197 -3z m168 -64 c50 -35 73 -138 52 -237 -18 -90 -84 -132 -165 -105 -53
18 -77 61 -83 152 -8 137 34 206 127 206 26 0 56 -7 69 -16z"/>
<path d="M6890 3033 c0 -217 8 -254 60 -280 57 -29 145 -11 208 41 l32 28 0
-36 c0 -35 1 -36 40 -36 l40 0 0 240 0 240 -40 0 -40 0 0 -169 0 -170 -32 -24
c-79 -59 -134 -71 -168 -37 -19 19 -20 33 -20 210 l0 190 -40 0 -40 0 0 -197z"/>
</g>
</svg>
